<svg width="35" height="25" viewBox="0 0 35 25" fill="none" xmlns="http://www.w3.org/2000/svg">
<path d="M9.22199 0.0570554C9.8472 -0.0262586 10.4828 -0.01259 11.108 0.0609605C12.039 0.0609605 12.9654 0.167055 13.8853 0.304393C14.7393 0.44108 15.5842 0.623981 16.4135 0.870668C17.3151 1.16617 18.1966 1.52481 19.0343 1.97262C19.7364 2.34493 20.3897 2.7986 21.0344 3.26074C21.7138 2.89494 22.4517 2.60854 23.2275 2.54606C23.5548 2.53629 23.8821 2.53825 24.21 2.54411C24.9232 2.59292 25.6182 2.80316 26.2636 3.10647C26.8321 3.41955 27.3628 3.82245 27.7526 4.34577C28.0447 4.71678 28.2566 5.14376 28.4359 5.57855C28.4437 5.60719 28.4606 5.66447 28.4685 5.69311C28.6086 6.14808 28.7149 6.61803 28.7208 7.09643C28.7599 7.43229 28.7429 7.78312 28.8851 8.09815C29.359 9.23916 30.1244 10.2246 30.8682 11.2003C31.9218 12.5431 33.0835 13.796 34.2668 15.0256C34.5452 15.3413 34.7447 15.7188 34.8855 16.1139C35.0419 16.7329 35.0543 17.3981 34.8203 17.9995C34.7988 18.0639 34.7779 18.129 34.759 18.1941C34.521 18.6165 34.2524 19.0383 33.8548 19.328C33.6351 19.5206 33.3678 19.6423 33.1103 19.7732C33.0431 19.7946 32.9773 19.8174 32.9127 19.8415C32.6239 19.9125 32.3312 19.9867 32.0326 19.9873C22.558 19.9841 13.0834 19.9886 3.60882 19.9847C3.11139 19.9984 2.71305 20.3707 2.51161 20.8009C2.4073 21.1778 2.4249 21.5976 2.64134 21.9341C2.8617 22.3155 3.30892 22.5238 3.73985 22.5258C12.0846 22.5212 20.4294 22.5277 28.7742 22.5232C29.0272 22.5069 29.2508 22.6397 29.477 22.7334C29.7802 23.0126 30.0279 23.3999 30.0096 23.8256C29.9516 24.1738 29.7926 24.5292 29.494 24.7356C29.2651 24.8898 28.9946 24.9985 28.7156 24.9985C20.5859 24.9972 12.4556 24.9985 4.32529 24.9979C3.97912 24.9959 3.62903 25.018 3.28611 24.9536C2.21693 24.8182 1.20186 24.2135 0.622945 23.2984C-0.0707157 22.3168 -0.177633 20.9799 0.265032 19.8747C0.272855 19.8474 0.288501 19.792 0.295673 19.7641C0.551232 19.2922 0.843299 18.8287 1.25272 18.4733C1.63279 18.1511 2.0722 17.8993 2.53768 17.7222C2.65568 17.6884 2.77303 17.6526 2.89169 17.62C2.62178 17.3082 2.34927 16.9984 2.10154 16.6691C1.82577 16.2837 1.5839 15.8756 1.34399 15.4675C0.429972 13.6971 -0.0563731 11.6982 0.0127322 9.7039C0.00882054 8.39626 0.308711 7.09968 0.792448 5.88838C0.79962 5.86039 0.81331 5.80441 0.81983 5.77708C1.05387 5.34423 1.23316 4.88275 1.50762 4.47334C2.30038 3.15594 3.43018 2.03511 4.78361 1.29635C5.81693 0.696229 6.97672 0.344748 8.15216 0.153387C8.50682 0.101316 8.86277 0.0622625 9.22199 0.0570554ZM7.95723 2.68405C7.93116 2.69316 7.87965 2.71139 7.85423 2.7205C6.5673 2.99062 5.36057 3.65973 4.46481 4.62435C3.96282 5.12879 3.58991 5.74453 3.27437 6.3785C2.73066 7.49347 2.49009 8.73082 2.43859 9.96295C2.52008 11.406 2.80954 12.8516 3.42953 14.1657C4.05735 15.5092 5.16108 16.6788 6.5836 17.1742C6.61164 17.182 6.6677 17.1982 6.69574 17.2061C7.37962 17.4319 8.10392 17.5491 8.82431 17.5133C16.5628 17.512 24.3013 17.5126 32.0398 17.5133C32.3775 17.5439 32.6004 17.1716 32.5463 16.8715C32.4883 16.6352 32.2771 16.4927 32.1206 16.3234C30.5671 14.6734 29.0278 12.9902 27.7709 11.0981C27.1835 10.2324 26.6913 9.29839 26.3797 8.29797C26.2545 7.82087 26.3321 7.32359 26.2245 6.84388C26.1313 6.12205 25.6391 5.44707 24.9441 5.20039C24.2472 4.93873 23.4499 4.91985 22.7438 5.15678C22.4276 5.30648 22.1108 5.47506 21.8774 5.74323C21.4608 6.17086 21.2848 6.76838 21.2235 7.34832C21.2007 7.78767 21.3989 8.19058 21.524 8.59999C21.6212 9.28798 21.0084 10.0196 20.2958 9.96816C19.8499 10.0072 19.4502 9.70259 19.2188 9.34591C18.9143 8.73212 18.7592 8.04152 18.795 7.35614C18.7657 6.79181 18.9078 6.24051 19.0799 5.70808C19.1758 5.49654 19.2618 5.2811 19.3616 5.07086C17.7832 3.89015 15.9141 3.1247 13.9733 2.7947C13.0769 2.65671 12.1746 2.52067 11.2665 2.5376L11.2091 2.48618C10.653 2.47316 10.0969 2.47055 9.54079 2.47967C9.01011 2.52328 8.48074 2.58706 7.95723 2.68405Z" fill="#36B7FF"/>
<path d="M24.6677 11.3253C25.0373 11.1782 25.4533 11.3057 25.7571 11.5381C25.9161 11.6715 26.0341 11.8447 26.1547 12.012C26.2636 12.3283 26.2564 12.67 26.1606 12.9889C25.9344 13.3606 25.581 13.6782 25.1345 13.7355C24.6951 13.7713 24.2244 13.5663 23.9975 13.1783C23.843 12.9134 23.6937 12.5912 23.7986 12.2821C23.9082 11.8492 24.212 11.4288 24.6677 11.3253Z" fill="#36B7FF"/>
</svg>
