<svg width="30" height="30" viewBox="0 0 30 30" fill="none" xmlns="http://www.w3.org/2000/svg">
<path d="M7.1964 1.59627C7.11738 1.27592 7.43844 0.961801 7.7536 1.00379C7.89204 1.01809 8.0224 1.10207 8.08618 1.22741C8.29431 1.54837 8.45329 1.8964 8.64213 2.22825C8.87018 2.68482 9.09884 3.14045 9.32938 3.59577C9.4728 3.84458 9.57796 4.11859 9.764 4.34034C9.83276 4.4268 9.95036 4.42307 10.0493 4.43831C10.5141 4.49585 10.9761 4.57889 11.4428 4.6159C11.5454 4.46754 11.6786 4.345 11.79 4.2038C11.9365 4.03835 12.1148 3.90212 12.2479 3.72422C12.3898 3.52891 12.4116 3.27885 12.5214 3.06736C12.6953 2.71125 12.8925 2.35545 13.185 2.08238C13.3807 1.8936 13.5841 1.6989 13.8374 1.59098C13.9214 1.94958 13.8573 2.32 13.8856 2.68326C13.8949 2.73924 13.9108 2.79647 13.9472 2.84125C14.2154 2.78403 14.482 2.70503 14.7592 2.70472C14.9057 2.71032 15.0523 2.71063 15.1988 2.70783C15.4912 2.70596 15.7678 2.81046 16.0534 2.85743C16.0662 2.81109 16.0827 2.76537 16.087 2.71716C16.1013 2.43383 16.0668 2.14801 16.1088 1.86623C16.1216 1.77479 16.1122 1.67869 16.1496 1.59191C16.8446 1.95424 17.3483 2.63008 17.5782 3.37184C17.6541 3.60604 17.7642 3.83214 17.9263 4.01906C18.038 4.16586 18.1827 4.28249 18.299 4.42525C18.3752 4.51855 18.4589 4.60532 18.547 4.68743C19.1076 4.61248 19.6617 4.49336 20.2226 4.4212C20.4958 3.90243 20.75 3.37371 21.0172 2.85183C21.1886 2.55201 21.3233 2.23291 21.5 1.93589C21.6348 1.67029 21.7741 1.40562 21.9446 1.16054C22.0874 0.973308 22.3817 0.949671 22.5637 1.09274C22.6477 1.16303 22.7389 1.23985 22.7753 1.34652C22.8151 1.55926 22.7283 1.76733 22.6434 1.95767C22.4912 2.28267 22.3503 2.61328 22.1829 2.93083C21.9244 3.45675 21.664 3.98205 21.3921 4.50113C21.2723 4.74093 21.1457 4.97792 21.0023 5.20465C20.9519 5.27587 20.8999 5.35798 20.8122 5.38597C20.3374 5.52717 19.8421 5.57569 19.3574 5.66992C19.2775 5.69325 19.1325 5.70507 19.1617 5.82294C19.2467 6.21699 19.3913 6.6011 19.4178 7.00666C19.4187 7.40133 19.424 7.79601 19.4147 8.19069C19.382 8.46469 19.2834 8.72594 19.181 8.98066C18.9906 9.45402 18.6534 9.85616 18.2548 10.1694C18.0999 10.3081 17.9117 10.3967 17.7347 10.5009C17.7365 10.5099 17.7406 10.5276 17.7424 10.5367C17.8523 10.6819 18.0159 10.7709 18.1531 10.8872C18.299 10.9982 18.4278 11.1291 18.5544 11.261C18.6643 11.3786 18.7489 11.5297 18.8985 11.6022C18.9956 11.6252 19.0939 11.5817 19.1897 11.5664C19.6586 11.4601 20.1321 11.3736 20.5997 11.2604C21.1637 11.1214 21.7362 11.0215 22.2999 10.881C22.7146 10.7799 23.1346 10.7043 23.5503 10.6082C23.6504 10.3709 23.7201 10.1227 23.8141 9.88322C23.9656 9.50658 24.0832 9.11782 24.2319 8.74025C24.3495 8.44043 24.4444 8.13222 24.5608 7.83178C24.6289 7.65823 24.6933 7.48313 24.7524 7.30616C24.8557 6.9995 24.9867 6.7028 25.0875 6.39489C25.1873 6.09694 25.3171 5.81019 25.4219 5.5141C25.523 5.22051 25.6487 4.93655 25.7728 4.65229C25.8061 4.58573 25.8329 4.50735 25.9013 4.46879C26.0364 4.39166 26.1981 4.37953 26.3496 4.40068C26.4405 4.41623 26.5369 4.4523 26.588 4.53441C26.6741 4.66566 26.7687 4.81961 26.7224 4.9832C26.6632 5.17634 26.5951 5.36668 26.5329 5.55889C26.4109 5.89074 26.294 6.22415 26.177 6.55755C26.1729 6.57248 26.1648 6.60172 26.1608 6.61665C26.0631 6.86732 25.971 7.12018 25.8858 7.37552C25.7934 7.65263 25.6786 7.92166 25.5862 8.19877C25.4704 8.55115 25.3227 8.89233 25.2038 9.24378C25.099 9.55821 24.9668 9.863 24.8585 10.1765C24.7739 10.4262 24.6668 10.6676 24.571 10.913C24.4976 11.0859 24.4425 11.2688 24.3396 11.4277C24.2596 11.5487 24.0988 11.5509 23.974 11.5938C23.1623 11.8236 22.3332 11.9819 21.5147 12.1835C20.8735 12.3147 20.2388 12.4746 19.6044 12.6351C19.5195 12.6621 19.4234 12.6758 19.3568 12.7399C19.3419 12.8624 19.382 12.9825 19.3926 13.1038C19.433 13.3582 19.4461 13.6207 19.54 13.8633C19.8561 13.8241 20.1651 13.7454 20.4774 13.6847C20.6887 13.6393 20.9005 13.5952 21.113 13.5544C21.7312 13.4521 22.3388 13.2944 22.956 13.1877C23.6364 13.0767 24.3032 12.8814 24.991 12.8176C25.0632 12.8394 25.14 12.8372 25.21 12.8067C25.3662 12.8304 25.4434 12.9753 25.5345 13.0857C25.9194 13.5977 26.2728 14.132 26.629 14.6638C27.2027 15.5129 27.7689 16.3672 28.3261 17.2269C28.5573 17.5985 28.8093 17.9593 29 18.3546V18.423C28.9586 18.5291 28.925 18.6454 28.8382 18.725C28.7026 18.85 28.5094 18.9197 28.3258 18.8799C28.1936 18.8435 28.0825 18.7515 28.0063 18.6398C27.1732 17.4632 26.3901 16.2522 25.5824 15.0582C25.3348 14.6955 25.1021 14.322 24.838 13.9712C24.3685 14.0464 23.8984 14.1208 23.4327 14.2187C22.9358 14.3189 22.4352 14.396 21.9393 14.499C21.1267 14.6759 20.3038 14.805 19.4974 15.0097C19.4424 15.0224 19.3916 15.0526 19.3655 15.1039C19.2716 15.2656 19.2445 15.4547 19.1751 15.6267C19.0858 15.9057 18.9427 16.166 18.8814 16.454C19.1695 16.6157 19.4797 16.7317 19.7712 16.8869C20.4482 17.2035 21.1199 17.532 21.8 17.8427C22.3749 18.1307 22.9629 18.3922 23.5338 18.6883C23.8032 18.8183 24.0729 18.9502 24.3221 19.1163C24.426 19.1807 24.4497 19.3082 24.4876 19.4152C24.5754 19.7137 24.6824 20.0061 24.7782 20.3022C24.926 20.8038 25.1071 21.2946 25.2502 21.7975C25.356 22.144 25.4832 22.4839 25.5784 22.8338C25.7016 23.2465 25.8509 23.6512 25.9629 24.0676C26.1328 24.5714 26.2765 25.0837 26.4396 25.59C26.5836 26.0223 26.6965 26.4643 26.844 26.8957C26.9566 27.2589 27.0512 27.6275 27.1735 27.9876C27.2192 28.1761 27.3163 28.3621 27.2839 28.5608C27.2394 28.7605 27.0724 28.9287 26.8782 28.9869C26.5957 29.0541 26.3307 28.828 26.238 28.5754C26.1446 28.2507 26.0438 27.9285 25.9346 27.6088C25.8204 27.2816 25.738 26.9445 25.6226 26.6176C25.4922 26.2431 25.3958 25.8584 25.266 25.484C25.1422 25.1238 25.0489 24.754 24.9229 24.3945C24.6497 23.5261 24.3834 22.6559 24.0997 21.791C23.9466 21.261 23.7562 20.7426 23.5951 20.2154C23.5347 20.0857 23.5304 19.9056 23.3882 19.8341C23.1169 19.6823 22.8269 19.5672 22.5516 19.4229C22.2959 19.2901 22.0286 19.1813 21.7726 19.0491C21.2023 18.7661 20.6227 18.5023 20.0493 18.2258C19.7743 18.1136 19.5183 17.9606 19.2432 17.8483C18.9122 17.6887 18.5806 17.527 18.2384 17.393C18.0725 17.48 17.9565 17.6327 17.8224 17.759C18.0461 17.8831 18.271 18.005 18.4916 18.1347C18.798 18.3275 19.0858 18.5509 19.3475 18.8015C19.7591 19.2258 20.0901 19.7321 20.2876 20.2907C20.3881 20.5939 20.4681 20.9043 20.5176 21.22C20.5493 21.3739 20.5275 21.5329 20.5586 21.6871C20.6019 21.968 20.5312 22.2466 20.5368 22.5275C20.4777 23.2033 20.343 23.877 20.0994 24.512C19.6968 25.6401 19.0619 26.6932 18.2116 27.5407C17.6062 28.1161 16.8934 28.6031 16.0842 28.8367C15.8546 28.9138 15.6123 28.9403 15.3727 28.9639C14.9409 28.9617 14.5041 28.9906 14.0804 28.888C13.1707 28.6622 12.3559 28.1329 11.7075 27.4648C11.029 26.8027 10.5175 25.9872 10.1258 25.1285C9.87164 24.5422 9.65853 23.9348 9.54622 23.3041C9.48618 23.0061 9.46129 22.7026 9.4308 22.4006C9.43329 22.079 9.42613 21.7568 9.43453 21.4352C9.51013 20.8107 9.67347 20.1852 9.99609 19.6403C10.1162 19.4248 10.2643 19.2267 10.4201 19.0363C10.6292 18.8189 10.8352 18.595 11.0803 18.4171C11.2841 18.2644 11.4941 18.1192 11.7215 18.0035C11.8578 17.9173 12.0108 17.8588 12.1396 17.7615C12.1418 17.7136 12.0948 17.685 12.0668 17.6533C11.9614 17.56 11.8572 17.4642 11.7389 17.3874C11.5149 17.4894 11.286 17.5802 11.0679 17.6949C10.7116 17.8536 10.3582 18.0184 10.0088 18.1923C9.72076 18.3104 9.45196 18.4691 9.16387 18.5869C8.34844 18.9869 7.52431 19.3682 6.712 19.7738C6.62333 19.8269 6.4992 19.8577 6.46996 19.9706C6.33742 20.3261 6.24253 20.694 6.11249 21.0505C6.09538 21.1015 6.07827 21.1525 6.06147 21.2041C6.00702 21.3615 5.96253 21.5223 5.91462 21.6818C5.80853 22.0224 5.68533 22.3577 5.58951 22.7016C5.47378 23.0798 5.34062 23.453 5.2336 23.834C5.13436 24.1671 5.01489 24.4937 4.91907 24.8277C4.84813 25.0663 4.77284 25.3033 4.69382 25.539C4.58773 25.8525 4.50809 26.1741 4.39827 26.486C4.26698 26.8673 4.1668 27.2583 4.03427 27.6393C3.93627 27.9288 3.85102 28.2221 3.75987 28.5142L3.74836 28.5425C3.69516 28.7393 3.54489 28.9129 3.35107 28.981C3.07418 29.0643 2.77831 28.8622 2.70084 28.5953C2.72324 28.5406 2.72231 28.4809 2.69929 28.4271C2.74502 28.2143 2.81098 28.0066 2.87724 27.7995C2.96031 27.5416 3.02969 27.2798 3.1056 27.0201C3.15724 26.854 3.20609 26.6873 3.2624 26.5227C3.38436 26.1293 3.4892 25.7309 3.62298 25.3415C3.74276 24.9577 3.84853 24.5702 3.97858 24.1898C3.98293 24.1749 3.99164 24.1451 3.99569 24.1298C4.14938 23.5862 4.34444 23.0546 4.49222 22.5091L4.50747 22.4814C4.58307 22.2127 4.68169 21.9512 4.75978 21.6837C4.88018 21.261 5.032 20.8483 5.15676 20.4272C5.25444 20.0879 5.38356 19.7588 5.48529 19.4208C5.51453 19.3309 5.53942 19.2369 5.59542 19.1595C5.66729 19.0699 5.77556 19.0233 5.87293 18.9676C6.12649 18.8183 6.40244 18.7126 6.66284 18.576C8.1456 17.8644 9.63551 17.1672 11.1155 16.4493C11.0336 16.1896 10.9089 15.9467 10.8236 15.6886C10.7437 15.4706 10.7064 15.2348 10.5788 15.037C10.2388 14.9571 9.89716 14.884 9.55587 14.81C9.21396 14.7329 8.86613 14.6843 8.52484 14.605C8.11915 14.5214 7.71564 14.4284 7.30747 14.3578C6.77982 14.2614 6.25747 14.1385 5.73044 14.0399C5.54689 14.0038 5.36053 13.9824 5.17853 13.9401C4.52396 14.8526 3.91698 15.7981 3.28729 16.7277C2.88036 17.3342 2.48276 17.9478 2.04409 18.5322C1.9268 18.6641 1.81604 18.8133 1.65582 18.8964C1.60231 18.8737 1.54289 18.8762 1.49062 18.9017C1.35436 18.8665 1.21436 18.813 1.11791 18.7067C1.05413 18.6224 1.02893 18.5176 1 18.418V18.3356C1.03049 18.252 1.06253 18.1686 1.10484 18.0902C1.38484 17.5917 1.71089 17.1217 2.02262 16.6428C2.37418 16.1141 2.72667 15.5857 3.07947 15.0576C3.54987 14.3771 3.99413 13.6782 4.49813 13.0217C4.57031 12.9352 4.64467 12.835 4.76009 12.8067C4.83102 12.8372 4.9088 12.8391 4.98222 12.8155C5.59978 12.8755 6.20271 13.0344 6.81187 13.1476C7.51311 13.2658 8.20347 13.439 8.90378 13.5613C9.29547 13.6356 9.68373 13.7255 10.0751 13.8001C10.1989 13.8275 10.3234 13.8524 10.4506 13.8567C10.5552 13.5078 10.5651 13.1408 10.637 12.785C10.6538 12.7461 10.6077 12.7218 10.5807 12.7069C10.4646 12.6503 10.3377 12.6223 10.2132 12.5912C9.76462 12.4864 9.32129 12.3595 8.86956 12.2693C8.32293 12.1592 7.78533 12.0096 7.2384 11.9008C6.77298 11.7981 6.31222 11.6753 5.85178 11.5521C5.78084 11.5266 5.68596 11.5173 5.65547 11.4364C5.4856 11.1061 5.36458 10.7537 5.21462 10.4144C5.09018 10.067 4.94738 9.72647 4.81796 9.38062C4.74609 9.16727 4.66676 8.9564 4.58431 8.74678C4.45333 8.41275 4.34662 8.07001 4.21409 7.73661C4.0408 7.22965 3.84853 6.72892 3.68489 6.21855C3.57196 5.89292 3.45062 5.56978 3.36196 5.23637C3.32804 5.1017 3.27018 4.97076 3.26738 4.83019C3.26053 4.69832 3.34142 4.57795 3.43662 4.49429C3.56667 4.39788 3.7384 4.38108 3.89458 4.39694C4.04422 4.41498 4.13818 4.55121 4.20382 4.67375C4.34849 4.95708 4.47044 5.25192 4.57809 5.55112C4.69818 5.87612 4.8304 6.19647 4.94084 6.52459C5.0376 6.80668 5.1552 7.0813 5.2504 7.36401C5.36987 7.73287 5.52698 8.08836 5.64458 8.45816C5.90747 9.17287 6.16693 9.88882 6.42578 10.6048C6.63889 10.6552 6.85293 10.7006 7.06791 10.7432C7.58653 10.8539 8.10049 10.9858 8.62067 11.0893C9.22329 11.2159 9.81969 11.3711 10.4251 11.4859C10.6491 11.5254 10.8669 11.605 11.0959 11.6118C11.2352 11.475 11.3718 11.3353 11.4925 11.1817C11.7274 10.9652 11.981 10.7696 12.2327 10.5737C12.233 10.5541 12.2333 10.5152 12.2333 10.4959C11.9113 10.3357 11.6263 10.1112 11.3824 9.84807C11.0573 9.54328 10.8395 9.14052 10.6995 8.72096C10.6015 8.46189 10.5352 8.18664 10.5505 7.90766C10.5611 7.58483 10.5287 7.25982 10.5726 6.93855C10.5931 6.51961 10.7216 6.11591 10.8286 5.71284C10.8047 5.68983 10.7807 5.66712 10.7568 5.64411C10.3274 5.56356 9.88875 5.54614 9.46129 5.45315C9.30916 5.4152 9.11782 5.41427 9.02231 5.26903C8.78058 4.90638 8.59329 4.51233 8.39449 4.12574C8.13969 3.6135 7.88084 3.10344 7.62853 2.59027C7.49164 2.25562 7.29471 1.94585 7.1964 1.59627ZM14.0502 3.97925C13.9982 3.99854 13.9472 4.01906 13.8971 4.04208C13.7528 4.11641 13.6037 4.18141 13.4625 4.26196C13.1896 4.42494 12.942 4.62492 12.7062 4.83672C12.2921 5.25659 11.9576 5.7654 11.8021 6.3386C11.7984 6.35384 11.7915 6.3837 11.7878 6.39894C11.7728 6.43875 11.7638 6.48042 11.7545 6.52179C11.7383 6.58026 11.7246 6.63904 11.7097 6.69782C11.6776 6.91304 11.6279 7.12764 11.6397 7.3466L11.6164 7.34566C11.6064 7.47722 11.5999 7.61033 11.6235 7.74096L11.6372 7.7111C11.6294 7.94156 11.6836 8.16798 11.7417 8.38942C11.7666 8.45131 11.7909 8.51383 11.8167 8.57572C12.0855 9.19246 12.7049 9.58185 13.3346 9.75384C13.4267 9.78587 13.5244 9.79894 13.6177 9.82817C14.7066 10.044 15.8559 10.016 16.9152 9.66551C17.4687 9.47019 17.9661 9.06525 18.1973 8.51694C18.2791 8.29643 18.3351 8.06224 18.3314 7.82556C18.3917 7.68031 18.3563 7.51423 18.3444 7.36215L18.3308 7.392C18.3429 7.22001 18.3084 7.05175 18.2912 6.88163C18.2679 6.81538 18.2704 6.74292 18.2424 6.67823C18.2374 6.64837 18.2331 6.61851 18.229 6.58866C18.1992 6.50624 18.1802 6.42071 18.1525 6.33767C18.1052 6.18776 18.047 6.04158 17.9795 5.89945C17.8118 5.58968 17.6199 5.28986 17.376 5.03421C17.2764 4.89581 17.1296 4.80468 17.0129 4.68214C16.6797 4.41032 16.3098 4.18577 15.9162 4.01191C15.6487 3.88284 15.3556 3.82095 15.0641 3.77492C14.9907 3.76807 14.9163 3.76776 14.8432 3.77523C14.5744 3.8225 14.304 3.876 14.0502 3.97925ZM14.5386 11.0663L14.5713 11.075C14.4727 11.0825 14.3722 11.0744 14.2754 11.098C13.904 11.1587 13.5309 11.2296 13.18 11.3696C12.9526 11.48 12.7133 11.5764 12.5173 11.7403C12.191 11.9822 11.9446 12.3284 11.817 12.7134C11.8012 12.7548 11.7862 12.7965 11.77 12.8378C11.7666 12.8531 11.7604 12.8836 11.7573 12.8991C11.608 13.347 11.6403 13.8231 11.6406 14.2881C11.6724 14.5857 11.7196 14.8828 11.8046 15.1704C11.8152 15.2019 11.8257 15.2333 11.836 15.265C12.0059 15.8295 12.3151 16.3548 12.7354 16.7691C12.9146 16.9613 13.1041 17.1479 13.3216 17.2965C13.4588 17.3936 13.6317 17.3516 13.786 17.337C13.9646 17.3385 14.1388 17.2962 14.3171 17.295C14.5218 17.2521 14.7318 17.276 14.939 17.2701C15.187 17.276 15.4368 17.2514 15.6823 17.2965C15.8434 17.2928 15.9999 17.3407 16.1614 17.3354C16.1648 17.3447 16.1713 17.3631 16.1748 17.3724C16.2998 17.3286 16.437 17.3958 16.5633 17.3429C16.6853 17.299 16.7814 17.2076 16.8779 17.1242C17.0732 16.9697 17.2487 16.7899 17.4049 16.5961C17.5828 16.4024 17.734 16.185 17.8544 15.9511C17.9888 15.715 18.0887 15.4622 18.1659 15.2019C18.1824 15.1406 18.1988 15.0793 18.2144 15.0177C18.2797 14.7559 18.3308 14.4875 18.3336 14.2172L18.3435 14.22C18.3584 14.1258 18.36 14.0303 18.3556 13.9354C18.3588 13.899 18.3588 13.8626 18.355 13.8266C18.3594 13.7417 18.3616 13.6555 18.3448 13.5722L18.3336 13.5734C18.3326 13.2462 18.2508 12.9243 18.1344 12.6201C18.0324 12.3747 17.8812 12.1533 17.7001 11.9595C17.4198 11.6582 17.0446 11.4675 16.666 11.3195C16.2955 11.1789 15.8972 11.1326 15.5056 11.1015C15.3568 11.0654 15.2028 11.0865 15.052 11.0784C15.0485 11.0691 15.0417 11.0498 15.0386 11.0405C14.8759 11.0819 14.7035 11.0209 14.5386 11.0663ZM14.254 18.3901C13.7636 18.4507 13.2715 18.5375 12.8064 18.7088C12.7242 18.7449 12.6405 18.7773 12.56 18.8161C12.2134 18.9645 11.8901 19.1648 11.6024 19.408C11.4418 19.5707 11.2667 19.7212 11.136 19.9103C10.9565 20.1417 10.8202 20.4029 10.7154 20.6757C10.6096 20.959 10.5346 21.256 10.52 21.5587C10.4727 21.8467 10.4827 22.1409 10.5044 22.4307L10.5147 22.4286C10.5384 22.8587 10.6413 23.2804 10.7583 23.6938C10.7689 23.7249 10.7798 23.7563 10.791 23.7877C10.8607 24.0427 10.9484 24.2928 11.0567 24.5341C11.1488 24.7431 11.2436 24.9506 11.3504 25.1527C11.6195 25.641 11.9352 26.106 12.3154 26.5147C12.5068 26.6966 12.6791 26.8988 12.8869 27.0627C13.1682 27.3065 13.4902 27.4996 13.8305 27.6499C14.057 27.754 14.2978 27.8514 14.5514 27.847C14.682 27.9061 14.8311 27.8694 14.9701 27.8809C15.1179 27.8704 15.2763 27.9068 15.416 27.847C15.5665 27.8542 15.7128 27.8141 15.8568 27.7761C15.9184 27.7513 15.9803 27.7267 16.04 27.6978C16.4417 27.5385 16.8116 27.3068 17.1392 27.0269C17.2204 26.9432 17.3091 26.868 17.3987 26.794C17.9157 26.2889 18.3435 25.6976 18.6804 25.0591C18.7623 24.9077 18.8217 24.7462 18.8979 24.5926C18.9318 24.5096 18.9651 24.4262 19.004 24.3457C19.0734 24.1612 19.1387 23.9759 19.1907 23.7858C19.2009 23.7544 19.2115 23.7233 19.2227 23.6925C19.2376 23.6297 19.2548 23.5681 19.2716 23.5062C19.3873 23.11 19.4542 22.7007 19.4822 22.2895C19.5335 22.213 19.512 22.1157 19.5183 22.0295C19.5105 21.9226 19.5372 21.8047 19.4822 21.7073C19.456 21.4318 19.4209 21.1543 19.3322 20.8909C19.3285 20.8763 19.321 20.8468 19.3173 20.8318C19.3055 20.8007 19.2943 20.7693 19.2837 20.7382C19.186 20.4826 19.0815 20.2263 18.9178 20.0048C18.5828 19.4988 18.0837 19.1185 17.5377 18.8634C17.2879 18.7558 17.0362 18.6479 16.7702 18.586C16.3508 18.4883 15.9256 18.4022 15.4953 18.381C15.2604 18.3359 15.0199 18.3686 14.7825 18.358C14.6046 18.344 14.4316 18.4016 14.254 18.3901Z" fill="#36B7FF"/>
<path d="M14.7592 2.70472C14.9039 2.67051 15.0541 2.67517 15.1988 2.70783C15.0523 2.71063 14.9057 2.71032 14.7592 2.70472Z" fill="#36B7FF"/>
<path d="M11.6164 7.34566L11.6397 7.3466C11.6381 7.46789 11.6397 7.5895 11.6372 7.7111L11.6235 7.74096C11.5999 7.61033 11.6064 7.47722 11.6164 7.34566Z" fill="#36B7FF"/>
<path d="M18.3308 7.392L18.3444 7.36215C18.3563 7.51423 18.3917 7.68031 18.3314 7.82556C18.332 7.68125 18.3273 7.53662 18.3308 7.392Z" fill="#36B7FF"/>
<path d="M14.5386 11.0663C14.7035 11.0209 14.8759 11.0819 15.0386 11.0405C15.0417 11.0498 15.0485 11.0691 15.052 11.0784C15.046 11.0784 15.0345 11.0784 15.0286 11.0784C14.8762 11.0685 14.7237 11.0616 14.5713 11.075L14.5386 11.0663Z" fill="#36B7FF"/>
<path d="M18.3336 13.5734L18.3448 13.5722C18.3616 13.6555 18.3594 13.7417 18.355 13.8266C18.3441 13.7426 18.3311 13.6583 18.3336 13.5734Z" fill="#36B7FF"/>
<path d="M4.76009 12.8067C4.83133 12.7688 4.91222 12.7825 4.98222 12.8155C4.9088 12.8391 4.83102 12.8372 4.76009 12.8067Z" fill="#36B7FF"/>
<path d="M24.991 12.8176C25.0592 12.7816 25.1391 12.7685 25.21 12.8067C25.14 12.8372 25.0632 12.8394 24.991 12.8176Z" fill="#36B7FF"/>
<path d="M18.3336 14.2172C18.328 14.1223 18.3435 14.0287 18.3556 13.9354C18.36 14.0303 18.3584 14.1258 18.3435 14.22L18.3336 14.2172Z" fill="#36B7FF"/>
<path d="M16.1614 17.3354C16.1673 17.3354 16.1788 17.3357 16.1847 17.3357C16.3107 17.3391 16.437 17.3569 16.5633 17.3429C16.437 17.3958 16.2998 17.3286 16.1748 17.3724C16.1713 17.3631 16.1648 17.3447 16.1614 17.3354Z" fill="#36B7FF"/>
<path d="M1.65582 18.8964C1.60231 18.8737 1.54289 18.8762 1.49062 18.9017C1.54227 18.934 1.60729 18.9356 1.65582 18.8964Z" fill="#36B7FF"/>
<path d="M10.5044 22.4307C10.4827 22.1409 10.4727 21.8467 10.52 21.5587C10.5284 21.7568 10.4864 21.9546 10.5091 22.1524C10.5181 22.2441 10.5228 22.3365 10.5147 22.4286L10.5044 22.4307Z" fill="#36B7FF"/>
<path d="M19.4822 21.7073C19.5372 21.8047 19.5105 21.9226 19.5183 22.0295C19.512 22.1157 19.5335 22.213 19.4822 22.2895C19.4791 22.0952 19.4797 21.9011 19.4822 21.7073Z" fill="#36B7FF"/>
<path d="M14.5514 27.847C14.8398 27.8442 15.1279 27.8439 15.416 27.847C15.2763 27.9068 15.1179 27.8704 14.9701 27.8809C14.8311 27.8694 14.682 27.9061 14.5514 27.847Z" fill="#36B7FF"/>
<path d="M2.70084 28.5953C2.66693 28.5437 2.66071 28.4778 2.69929 28.4271C2.72231 28.4809 2.72324 28.5406 2.70084 28.5953Z" fill="#36B7FF"/>
<path d="M14.7592 2.70472C14.482 2.70503 14.2154 2.78403 13.9472 2.84125C13.9108 2.79647 13.8949 2.73924 13.8856 2.68326C13.8573 2.32 13.9214 1.94958 13.8374 1.59098C13.5841 1.6989 13.3807 1.8936 13.185 2.08238C12.8925 2.35545 12.6953 2.71125 12.5214 3.06736C12.4116 3.27885 12.3898 3.52891 12.2479 3.72422C12.1148 3.90212 11.9365 4.03835 11.79 4.2038C11.6786 4.345 11.5454 4.46754 11.4428 4.6159C10.9761 4.57889 10.5141 4.49585 10.0493 4.43831C9.95036 4.42307 9.83276 4.4268 9.764 4.34034C9.57796 4.11859 9.4728 3.84458 9.32938 3.59577C9.09884 3.14045 8.87018 2.68482 8.64213 2.22825C8.45329 1.8964 8.29431 1.54837 8.08618 1.22741C8.0224 1.10207 7.89204 1.01809 7.7536 1.00379C7.43844 0.961801 7.11738 1.27592 7.1964 1.59627C7.29471 1.94585 7.49164 2.25562 7.62853 2.59027C7.88084 3.10344 8.13969 3.6135 8.39449 4.12574C8.59329 4.51233 8.78058 4.90638 9.02231 5.26903C9.11782 5.41427 9.30916 5.4152 9.46129 5.45315C9.88876 5.54614 10.3274 5.56356 10.7568 5.64411C10.7807 5.66712 10.8047 5.68983 10.8286 5.71284C10.7216 6.11591 10.5931 6.51961 10.5726 6.93855C10.5287 7.25982 10.5611 7.58483 10.5505 7.90766C10.5352 8.18664 10.6015 8.46189 10.6995 8.72096C10.8395 9.14052 11.0573 9.54328 11.3824 9.84807C11.6263 10.1112 11.9113 10.3357 12.2333 10.4959C12.2333 10.5152 12.233 10.5541 12.2327 10.5737C11.981 10.7696 11.7274 10.9652 11.4925 11.1817C11.3718 11.3353 11.2352 11.475 11.0959 11.6118C10.8669 11.605 10.6491 11.5254 10.4251 11.4859C9.81969 11.3711 9.22329 11.2159 8.62067 11.0893C8.10049 10.9858 7.58653 10.8539 7.06791 10.7432C6.85293 10.7006 6.63889 10.6552 6.42578 10.6048C6.16693 9.88882 5.90747 9.17287 5.64458 8.45816C5.52698 8.08836 5.36987 7.73287 5.2504 7.36401C5.1552 7.0813 5.0376 6.80668 4.94084 6.52459C4.8304 6.19647 4.69818 5.87612 4.57809 5.55112C4.47044 5.25192 4.34849 4.95708 4.20382 4.67375C4.13818 4.55121 4.04422 4.41498 3.89458 4.39694C3.7384 4.38108 3.56667 4.39788 3.43662 4.49429C3.34142 4.57795 3.26053 4.69832 3.26738 4.83019C3.27018 4.97076 3.32804 5.1017 3.36196 5.23637C3.45062 5.56978 3.57196 5.89292 3.68489 6.21855C3.84853 6.72892 4.0408 7.22965 4.21409 7.73661C4.34662 8.07001 4.45333 8.41275 4.58431 8.74678C4.66676 8.9564 4.74609 9.16727 4.81796 9.38062C4.94738 9.72647 5.09018 10.067 5.21462 10.4144C5.36458 10.7537 5.4856 11.1061 5.65547 11.4364C5.68596 11.5173 5.78084 11.5266 5.85178 11.5521C6.31222 11.6753 6.77298 11.7981 7.2384 11.9008C7.78533 12.0096 8.32293 12.1592 8.86956 12.2693C9.32129 12.3595 9.76462 12.4864 10.2132 12.5912C10.3377 12.6223 10.4646 12.6503 10.5807 12.7069C10.6077 12.7218 10.6538 12.7461 10.637 12.785C10.5651 13.1408 10.5552 13.5078 10.4506 13.8567C10.3234 13.8524 10.1989 13.8275 10.0751 13.8001C9.68373 13.7255 9.29547 13.6356 8.90378 13.5613C8.20347 13.439 7.51311 13.2658 6.81187 13.1476C6.20271 13.0344 5.59978 12.8755 4.98222 12.8155M14.7592 2.70472C14.9057 2.71032 15.0523 2.71063 15.1988 2.70783M14.7592 2.70472C14.9039 2.67051 15.0541 2.67517 15.1988 2.70783M15.1988 2.70783C15.4912 2.70596 15.7678 2.81046 16.0534 2.85743C16.0662 2.81109 16.0827 2.76537 16.087 2.71716C16.1013 2.43383 16.0668 2.14801 16.1088 1.86623C16.1216 1.77479 16.1122 1.67869 16.1496 1.59191C16.8446 1.95424 17.3483 2.63008 17.5782 3.37184C17.6541 3.60604 17.7642 3.83214 17.9263 4.01906C18.038 4.16586 18.1827 4.28249 18.299 4.42525C18.3752 4.51855 18.4589 4.60532 18.547 4.68743C19.1076 4.61248 19.6617 4.49336 20.2226 4.4212C20.4958 3.90243 20.75 3.37371 21.0172 2.85183C21.1886 2.55201 21.3233 2.23291 21.5 1.93589C21.6348 1.67029 21.7741 1.40562 21.9446 1.16054C22.0874 0.973308 22.3817 0.949671 22.5637 1.09274C22.6477 1.16303 22.7389 1.23985 22.7753 1.34652C22.8151 1.55926 22.7283 1.76733 22.6434 1.95767C22.4912 2.28267 22.3503 2.61328 22.1829 2.93083C21.9244 3.45675 21.664 3.98205 21.3921 4.50113C21.2723 4.74093 21.1457 4.97792 21.0023 5.20465C20.9519 5.27587 20.8999 5.35798 20.8122 5.38597C20.3374 5.52717 19.8421 5.57569 19.3574 5.66992C19.2775 5.69325 19.1325 5.70507 19.1617 5.82294C19.2467 6.21699 19.3913 6.6011 19.4178 7.00666C19.4187 7.40133 19.424 7.79601 19.4147 8.19069C19.382 8.46469 19.2834 8.72594 19.181 8.98066C18.9906 9.45402 18.6534 9.85616 18.2548 10.1694C18.0999 10.3081 17.9117 10.3967 17.7347 10.5009C17.7365 10.5099 17.7406 10.5276 17.7424 10.5367C17.8523 10.6819 18.0159 10.7709 18.1531 10.8872C18.299 10.9982 18.4278 11.1291 18.5544 11.261C18.6643 11.3786 18.7489 11.5297 18.8985 11.6022C18.9956 11.6252 19.0939 11.5817 19.1897 11.5664C19.6586 11.4601 20.1321 11.3736 20.5997 11.2604C21.1637 11.1214 21.7362 11.0215 22.2999 10.881C22.7146 10.7799 23.1346 10.7043 23.5503 10.6082C23.6504 10.3709 23.7201 10.1227 23.8141 9.88322C23.9656 9.50658 24.0832 9.11782 24.2319 8.74025C24.3495 8.44043 24.4444 8.13222 24.5608 7.83178C24.6289 7.65823 24.6933 7.48313 24.7524 7.30616C24.8557 6.9995 24.9867 6.7028 25.0875 6.39489C25.1873 6.09694 25.3171 5.81019 25.4219 5.5141C25.523 5.22051 25.6487 4.93655 25.7728 4.65229C25.8061 4.58573 25.8329 4.50735 25.9013 4.46879C26.0364 4.39166 26.1981 4.37953 26.3496 4.40068C26.4405 4.41623 26.5369 4.4523 26.588 4.53441C26.6741 4.66566 26.7687 4.81961 26.7224 4.9832C26.6632 5.17634 26.5951 5.36668 26.5329 5.55889C26.4109 5.89074 26.294 6.22415 26.177 6.55755C26.1729 6.57248 26.1648 6.60172 26.1608 6.61665C26.0631 6.86732 25.971 7.12018 25.8858 7.37552C25.7934 7.65263 25.6786 7.92166 25.5862 8.19877C25.4704 8.55115 25.3227 8.89233 25.2038 9.24378C25.099 9.55821 24.9668 9.863 24.8585 10.1765C24.7739 10.4262 24.6668 10.6676 24.571 10.913C24.4976 11.0859 24.4425 11.2688 24.3396 11.4277C24.2596 11.5487 24.0988 11.5509 23.974 11.5938C23.1623 11.8236 22.3332 11.9819 21.5147 12.1835C20.8735 12.3147 20.2388 12.4746 19.6044 12.6351C19.5195 12.6621 19.4234 12.6758 19.3568 12.7399C19.3419 12.8624 19.382 12.9825 19.3926 13.1038C19.433 13.3582 19.4461 13.6207 19.54 13.8633C19.8561 13.8241 20.1651 13.7454 20.4774 13.6847C20.6887 13.6393 20.9005 13.5952 21.113 13.5544C21.7312 13.4521 22.3388 13.2944 22.956 13.1877C23.6364 13.0767 24.3032 12.8814 24.991 12.8176M24.991 12.8176C25.0632 12.8394 25.14 12.8372 25.21 12.8067M24.991 12.8176C25.0592 12.7816 25.1391 12.7685 25.21 12.8067M25.21 12.8067C25.3662 12.8304 25.4434 12.9753 25.5345 13.0857C25.9194 13.5977 26.2728 14.132 26.629 14.6638C27.2027 15.5129 27.7689 16.3672 28.3261 17.2269C28.5573 17.5985 28.8093 17.9593 29 18.3546V18.423C28.9586 18.5291 28.925 18.6454 28.8382 18.725C28.7026 18.85 28.5094 18.9197 28.3258 18.8799C28.1936 18.8435 28.0825 18.7515 28.0063 18.6398C27.1732 17.4632 26.3901 16.2522 25.5824 15.0582C25.3348 14.6955 25.1021 14.322 24.838 13.9712C24.3685 14.0464 23.8984 14.1208 23.4327 14.2187C22.9358 14.3189 22.4352 14.396 21.9393 14.499C21.1267 14.6759 20.3038 14.805 19.4974 15.0097C19.4424 15.0224 19.3916 15.0526 19.3655 15.1039C19.2716 15.2656 19.2445 15.4547 19.1751 15.6267C19.0858 15.9057 18.9427 16.166 18.8814 16.454C19.1695 16.6157 19.4797 16.7317 19.7712 16.8869C20.4482 17.2035 21.1199 17.532 21.8 17.8427C22.3749 18.1307 22.9629 18.3922 23.5338 18.6883C23.8032 18.8183 24.0729 18.9502 24.3221 19.1163C24.426 19.1807 24.4497 19.3082 24.4876 19.4152C24.5754 19.7137 24.6824 20.0061 24.7782 20.3022C24.926 20.8038 25.1071 21.2946 25.2502 21.7975C25.356 22.144 25.4832 22.4839 25.5784 22.8338C25.7016 23.2465 25.8509 23.6512 25.9629 24.0676C26.1328 24.5714 26.2765 25.0837 26.4396 25.59C26.5836 26.0223 26.6965 26.4643 26.844 26.8957C26.9566 27.2589 27.0512 27.6275 27.1735 27.9876C27.2192 28.1761 27.3163 28.3621 27.2839 28.5608C27.2394 28.7605 27.0724 28.9287 26.8782 28.9869C26.5957 29.0541 26.3307 28.828 26.238 28.5754C26.1446 28.2507 26.0438 27.9285 25.9346 27.6088C25.8204 27.2816 25.738 26.9445 25.6226 26.6176C25.4922 26.2431 25.3958 25.8584 25.266 25.484C25.1422 25.1238 25.0489 24.754 24.9229 24.3945C24.6497 23.5261 24.3834 22.6559 24.0997 21.791C23.9466 21.261 23.7562 20.7426 23.5951 20.2154C23.5347 20.0857 23.5304 19.9056 23.3882 19.8341C23.1169 19.6823 22.8269 19.5672 22.5516 19.4229C22.2959 19.2901 22.0286 19.1813 21.7726 19.0491C21.2023 18.7661 20.6227 18.5023 20.0493 18.2258C19.7743 18.1136 19.5183 17.9606 19.2432 17.8483C18.9122 17.6887 18.5806 17.527 18.2384 17.393C18.0725 17.48 17.9565 17.6327 17.8224 17.759C18.0461 17.8831 18.271 18.005 18.4916 18.1347C18.798 18.3275 19.0858 18.5509 19.3475 18.8015C19.7591 19.2258 20.0901 19.7321 20.2876 20.2907C20.3881 20.5939 20.4681 20.9043 20.5176 21.22C20.5493 21.3739 20.5275 21.5329 20.5586 21.6871C20.6019 21.968 20.5312 22.2466 20.5368 22.5275C20.4777 23.2033 20.343 23.877 20.0994 24.512C19.6968 25.6401 19.0619 26.6932 18.2116 27.5407C17.6062 28.1161 16.8934 28.6031 16.0842 28.8367C15.8546 28.9138 15.6123 28.9403 15.3727 28.9639C14.9409 28.9617 14.5041 28.9906 14.0804 28.888C13.1707 28.6622 12.3559 28.1329 11.7075 27.4648C11.029 26.8027 10.5175 25.9872 10.1258 25.1285C9.87164 24.5422 9.65853 23.9348 9.54622 23.3041C9.48618 23.0061 9.46129 22.7026 9.4308 22.4006C9.43329 22.079 9.42613 21.7568 9.43453 21.4352C9.51013 20.8107 9.67347 20.1852 9.99609 19.6403C10.1162 19.4248 10.2643 19.2267 10.4201 19.0363C10.6292 18.8189 10.8352 18.595 11.0803 18.4171C11.2841 18.2644 11.4941 18.1192 11.7215 18.0035C11.8578 17.9173 12.0108 17.8588 12.1396 17.7615C12.1418 17.7136 12.0948 17.685 12.0668 17.6533C11.9614 17.56 11.8572 17.4642 11.7389 17.3874C11.5149 17.4894 11.286 17.5802 11.0679 17.6949C10.7116 17.8536 10.3582 18.0184 10.0088 18.1923C9.72076 18.3104 9.45196 18.4691 9.16387 18.5869C8.34844 18.9869 7.52431 19.3682 6.712 19.7738C6.62333 19.8269 6.4992 19.8577 6.46996 19.9706C6.33742 20.3261 6.24253 20.694 6.11249 21.0505C6.09538 21.1015 6.07827 21.1525 6.06147 21.2041C6.00702 21.3615 5.96253 21.5223 5.91462 21.6818C5.80853 22.0224 5.68533 22.3577 5.58951 22.7016C5.47378 23.0798 5.34062 23.453 5.2336 23.834C5.13436 24.1671 5.01489 24.4937 4.91907 24.8277C4.84813 25.0663 4.77284 25.3033 4.69382 25.539C4.58773 25.8525 4.50809 26.1741 4.39827 26.486C4.26698 26.8674 4.1668 27.2583 4.03427 27.6393C3.93627 27.9288 3.85102 28.2221 3.75987 28.5142L3.74836 28.5425C3.69516 28.7393 3.54489 28.9129 3.35107 28.981C3.07418 29.0643 2.77831 28.8622 2.70084 28.5953M2.70084 28.5953C2.72324 28.5406 2.72231 28.4809 2.69929 28.4271M2.70084 28.5953C2.66693 28.5437 2.66071 28.4778 2.69929 28.4271M2.69929 28.4271C2.74502 28.2143 2.81098 28.0066 2.87724 27.7995C2.96031 27.5416 3.02969 27.2798 3.1056 27.0201C3.15724 26.854 3.20609 26.6873 3.2624 26.5227C3.38436 26.1293 3.4892 25.7309 3.62298 25.3415C3.74276 24.9577 3.84853 24.5702 3.97858 24.1898C3.98293 24.1749 3.99164 24.145 3.99569 24.1298C4.14938 23.5862 4.34444 23.0546 4.49222 22.5091L4.50747 22.4814C4.58307 22.2127 4.68169 21.9512 4.75978 21.6837C4.88018 21.261 5.032 20.8483 5.15676 20.4272C5.25444 20.0879 5.38356 19.7588 5.48529 19.4208C5.51453 19.3309 5.53942 19.2369 5.59542 19.1595C5.66729 19.0699 5.77556 19.0233 5.87293 18.9676C6.12649 18.8183 6.40244 18.7126 6.66284 18.576C8.1456 17.8644 9.63551 17.1672 11.1155 16.4493C11.0336 16.1896 10.9089 15.9467 10.8236 15.6886C10.7437 15.4706 10.7064 15.2348 10.5788 15.037C10.2388 14.9571 9.89716 14.884 9.55587 14.81C9.21396 14.7329 8.86613 14.6843 8.52484 14.605C8.11915 14.5214 7.71564 14.4284 7.30747 14.3578C6.77982 14.2614 6.25747 14.1385 5.73044 14.0399C5.54689 14.0038 5.36053 13.9824 5.17853 13.9401C4.52396 14.8526 3.91698 15.7981 3.28729 16.7277C2.88036 17.3342 2.48276 17.9478 2.04409 18.5322C1.9268 18.6641 1.81604 18.8133 1.65582 18.8964M1.65582 18.8964C1.60231 18.8737 1.54289 18.8762 1.49062 18.9017M1.65582 18.8964C1.60729 18.9356 1.54227 18.934 1.49062 18.9017M1.49062 18.9017C1.35436 18.8665 1.21436 18.813 1.11791 18.7067C1.05413 18.6224 1.02893 18.5176 1 18.418V18.3356C1.03049 18.252 1.06253 18.1686 1.10484 18.0902C1.38484 17.5917 1.71089 17.1217 2.02262 16.6428C2.37418 16.1141 2.72667 15.5857 3.07947 15.0576C3.54987 14.3771 3.99413 13.6782 4.49813 13.0217C4.57031 12.9352 4.64467 12.835 4.76009 12.8067M4.76009 12.8067C4.83102 12.8372 4.9088 12.8391 4.98222 12.8155M4.76009 12.8067C4.83133 12.7688 4.91222 12.7825 4.98222 12.8155M11.6397 7.3466C11.6279 7.12764 11.6776 6.91304 11.7097 6.69782C11.7246 6.63904 11.7383 6.58026 11.7545 6.52179C11.7638 6.48042 11.7728 6.43875 11.7878 6.39894C11.7915 6.3837 11.7984 6.35384 11.8021 6.3386C11.9576 5.7654 12.2921 5.25659 12.7062 4.83672C12.942 4.62492 13.1896 4.42494 13.4625 4.26196C13.6037 4.18141 13.7528 4.11641 13.8971 4.04208C13.9472 4.01906 13.9982 3.99854 14.0502 3.97925C14.304 3.876 14.5744 3.8225 14.8432 3.77523C14.9163 3.76776 14.9907 3.76808 15.0641 3.77492C15.3556 3.82095 15.6487 3.88284 15.9162 4.01191C16.3098 4.18577 16.6797 4.41032 17.0129 4.68214C17.1296 4.80468 17.2764 4.89581 17.376 5.03421C17.6199 5.28986 17.8118 5.58968 17.9795 5.89945C18.047 6.04158 18.1052 6.18776 18.1525 6.33767C18.1802 6.42071 18.1992 6.50624 18.229 6.58866C18.2331 6.61851 18.2374 6.64837 18.2424 6.67823C18.2704 6.74292 18.2679 6.81538 18.2912 6.88163C18.3084 7.05175 18.3429 7.22001 18.3308 7.392M11.6397 7.3466L11.6164 7.34566C11.6064 7.47722 11.5999 7.61033 11.6235 7.74096L11.6372 7.7111M11.6397 7.3466C11.6381 7.46789 11.6397 7.5895 11.6372 7.7111M11.6372 7.7111C11.6294 7.94156 11.6836 8.16798 11.7417 8.38942C11.7666 8.45131 11.7909 8.51383 11.8167 8.57572C12.0855 9.19246 12.7049 9.58185 13.3346 9.75384C13.4267 9.78587 13.5244 9.79894 13.6177 9.82817C14.7066 10.044 15.8559 10.016 16.9152 9.66551C17.4687 9.47019 17.9661 9.06525 18.1973 8.51694C18.2791 8.29643 18.3351 8.06224 18.3314 7.82556M18.3314 7.82556C18.3917 7.68031 18.3563 7.51423 18.3444 7.36215L18.3308 7.392M18.3314 7.82556C18.332 7.68125 18.3273 7.53662 18.3308 7.392M14.5713 11.075L14.5386 11.0663C14.7035 11.0209 14.8759 11.0819 15.0386 11.0405C15.0417 11.0498 15.0485 11.0691 15.052 11.0784M14.5713 11.075C14.4727 11.0825 14.3722 11.0744 14.2754 11.098C13.904 11.1587 13.5309 11.2296 13.18 11.3696C12.9526 11.48 12.7133 11.5764 12.5173 11.7403C12.191 11.9822 11.9446 12.3284 11.817 12.7134C11.8012 12.7548 11.7862 12.7965 11.77 12.8378C11.7666 12.8531 11.7604 12.8836 11.7573 12.8991C11.608 13.347 11.6403 13.8231 11.6406 14.2881C11.6724 14.5857 11.7196 14.8828 11.8046 15.1704C11.8152 15.2019 11.8257 15.2333 11.836 15.265C12.0059 15.8295 12.3151 16.3548 12.7354 16.7691C12.9146 16.9613 13.1041 17.1479 13.3216 17.2965C13.4588 17.3936 13.6317 17.3516 13.786 17.337C13.9646 17.3385 14.1388 17.2962 14.3171 17.295C14.5218 17.2521 14.7318 17.276 14.939 17.2701C15.187 17.276 15.4368 17.2514 15.6823 17.2965C15.8434 17.2928 15.9999 17.3407 16.1614 17.3354M14.5713 11.075C14.7237 11.0616 14.8762 11.0685 15.0286 11.0784C15.0345 11.0784 15.046 11.0784 15.052 11.0784M16.1614 17.3354C16.1648 17.3447 16.1713 17.3631 16.1748 17.3724C16.2998 17.3286 16.437 17.3958 16.5633 17.3429M16.1614 17.3354C16.1673 17.3354 16.1788 17.3357 16.1847 17.3357C16.3107 17.3391 16.437 17.3569 16.5633 17.3429M16.5633 17.3429C16.6853 17.299 16.7814 17.2076 16.8779 17.1242C17.0732 16.9697 17.2487 16.7899 17.4049 16.5961C17.5828 16.4024 17.734 16.185 17.8544 15.9511C17.9888 15.715 18.0887 15.4622 18.1659 15.2019C18.1824 15.1406 18.1988 15.0793 18.2144 15.0177C18.2797 14.7559 18.3308 14.4875 18.3336 14.2172M18.3336 14.2172L18.3435 14.22C18.3584 14.1258 18.36 14.0303 18.3556 13.9354M18.3336 14.2172C18.328 14.1223 18.3435 14.0287 18.3556 13.9354M18.3556 13.9354C18.3588 13.899 18.3588 13.8626 18.355 13.8266M18.355 13.8266C18.3594 13.7417 18.3616 13.6555 18.3448 13.5722L18.3336 13.5734M18.355 13.8266C18.3441 13.7426 18.3311 13.6583 18.3336 13.5734M18.3336 13.5734C18.3326 13.2462 18.2508 12.9243 18.1344 12.6201C18.0324 12.3747 17.8812 12.1533 17.7001 11.9595C17.4198 11.6582 17.0446 11.4675 16.666 11.3195C16.2955 11.1789 15.8972 11.1326 15.5056 11.1015C15.3568 11.0654 15.2028 11.0865 15.052 11.0784M10.52 21.5587C10.5346 21.256 10.6096 20.959 10.7154 20.6757C10.8202 20.4029 10.9565 20.1417 11.136 19.9103C11.2667 19.7212 11.4418 19.5707 11.6024 19.408C11.8901 19.1648 12.2134 18.9645 12.56 18.8161C12.6405 18.7773 12.7242 18.7449 12.8064 18.7088C13.2715 18.5375 13.7636 18.4507 14.254 18.3901C14.4316 18.4016 14.6046 18.344 14.7825 18.358C15.0199 18.3686 15.2604 18.3359 15.4953 18.381C15.9256 18.4022 16.3508 18.4883 16.7702 18.586C17.0362 18.6479 17.2879 18.7558 17.5377 18.8634C18.0837 19.1185 18.5828 19.4988 18.9178 20.0048C19.0815 20.2263 19.186 20.4826 19.2837 20.7382C19.2943 20.7693 19.3055 20.8007 19.3173 20.8318C19.321 20.8468 19.3285 20.8763 19.3322 20.8909C19.4209 21.1543 19.456 21.4318 19.4822 21.7073M10.52 21.5587C10.4727 21.8467 10.4827 22.1409 10.5044 22.4307L10.5147 22.4286M10.52 21.5587C10.5284 21.7568 10.4864 21.9546 10.5091 22.1524C10.5181 22.2441 10.5228 22.3365 10.5147 22.4286M10.5147 22.4286C10.5384 22.8587 10.6413 23.2804 10.7583 23.6938C10.7689 23.7249 10.7798 23.7563 10.791 23.7877C10.8607 24.0427 10.9484 24.2928 11.0567 24.5341C11.1488 24.7431 11.2436 24.9506 11.3504 25.1527C11.6195 25.641 11.9352 26.106 12.3154 26.5147C12.5068 26.6966 12.6791 26.8988 12.8869 27.0627C13.1682 27.3065 13.4902 27.4996 13.8305 27.6499C14.057 27.754 14.2978 27.8514 14.5514 27.847M14.5514 27.847C14.682 27.9061 14.8311 27.8694 14.9701 27.8809C15.1179 27.8704 15.2763 27.9068 15.416 27.847M14.5514 27.847C14.8398 27.8442 15.1279 27.8439 15.416 27.847M15.416 27.847C15.5665 27.8542 15.7128 27.8141 15.8568 27.7761C15.9184 27.7513 15.9803 27.7267 16.04 27.6978C16.4417 27.5385 16.8116 27.3068 17.1392 27.0269C17.2204 26.9432 17.3091 26.868 17.3987 26.794C17.9157 26.2889 18.3435 25.6976 18.6804 25.0591C18.7623 24.9077 18.8217 24.7462 18.8979 24.5926C18.9318 24.5096 18.9651 24.4262 19.004 24.3457C19.0734 24.1612 19.1387 23.9759 19.1907 23.7858C19.2009 23.7544 19.2115 23.7233 19.2227 23.6925C19.2376 23.6297 19.2548 23.5681 19.2716 23.5062C19.3873 23.11 19.4542 22.7007 19.4822 22.2895M19.4822 22.2895C19.5335 22.213 19.512 22.1157 19.5183 22.0295C19.5105 21.9226 19.5372 21.8047 19.4822 21.7073M19.4822 22.2895C19.4791 22.0952 19.4797 21.9011 19.4822 21.7073" stroke="#36B7FF" stroke-width="0.9"/>
</svg>
