<svg width="31" height="32" viewBox="0 0 31 32" fill="none" xmlns="http://www.w3.org/2000/svg">
<path d="M14.0903 0.10293C14.2841 0.0399268 14.4891 0.0318594 14.6899 0.00535212C14.9035 -0.0176977 15.1128 0.0406951 15.3252 0.0483784C15.5241 0.10485 15.7245 0.158633 15.9148 0.240844C15.9512 0.260052 15.988 0.278876 16.0252 0.2977C16.5462 0.5597 16.9803 0.992651 17.2218 1.52164C17.24 1.55891 17.2582 1.59617 17.2769 1.63344C17.3001 1.69913 17.3257 1.76405 17.3532 1.82859C17.497 2.2869 17.5269 2.77939 17.4183 3.24884C17.3958 3.32491 17.3738 3.40135 17.3544 3.47857C17.2137 3.89846 16.971 4.28531 16.64 4.58342C16.4977 4.74477 16.3043 4.8435 16.1349 4.97105C16.1171 5.11818 16.1287 5.26685 16.1315 5.41437C16.6695 5.49543 17.2063 5.59339 17.7315 5.73899C17.8203 5.76857 17.9102 5.79431 18.0013 5.81582C18.4091 5.9545 18.8199 6.08973 19.2091 6.27489C20.2836 6.74434 21.2708 7.40433 22.1333 8.19264C22.4321 7.92564 22.7019 7.62753 22.9945 7.35324C22.9837 7.30215 22.9728 7.25105 22.9581 7.20111C22.8635 6.74473 22.8969 6.26913 23.036 5.82504C23.0635 5.76012 23.0899 5.69481 23.1135 5.62835C23.1314 5.59108 23.1496 5.55382 23.1678 5.51694C23.4589 4.88691 24.0209 4.40056 24.6729 4.16123C24.9663 4.06019 25.2756 4.02255 25.5838 3.99796C25.8908 4.02255 26.1993 4.06058 26.4924 4.16123C27.1439 4.40095 27.7064 4.8873 27.9963 5.51771C28.0168 5.55574 28.0374 5.59339 28.0587 5.63142C28.0614 5.64948 28.0665 5.68597 28.0692 5.70403C28.0897 5.74283 28.1103 5.78163 28.1316 5.82043C28.2665 6.28219 28.3076 6.77431 28.1955 7.24529C28.1591 7.37514 28.1238 7.50537 28.0723 7.62984C28.068 7.64751 28.0599 7.68247 28.056 7.70014C27.7944 8.25679 27.3594 8.73661 26.8071 9.02128C26.6552 9.09696 26.4943 9.15189 26.3354 9.21105C26.1489 9.24102 25.9668 9.30441 25.776 9.2998C25.621 9.29903 25.4656 9.3021 25.3109 9.29788C25.1656 9.29288 25.028 9.23987 24.8845 9.2222C24.8372 9.25024 24.7985 9.28904 24.7593 9.32669C24.4667 9.62019 24.1725 9.91177 23.8767 10.2014C23.8771 10.2199 23.8783 10.2567 23.8787 10.2752C24.0279 10.4846 24.15 10.7104 24.2764 10.9336C24.3799 11.1384 24.488 11.3409 24.5861 11.5487C24.6454 11.6747 24.7012 11.8022 24.7528 11.9317C24.7876 12.1199 24.9997 12.1073 25.1411 12.1695C25.159 12.1737 25.1946 12.1826 25.2125 12.1872C25.566 12.3431 25.9001 12.5494 26.1726 12.8245C26.3846 13.0615 26.5703 13.3247 26.6951 13.6178C26.7063 13.6385 26.7288 13.68 26.74 13.7008C26.7431 13.7188 26.749 13.7546 26.7517 13.7726C26.7726 13.8229 26.7924 13.8744 26.8137 13.9251C26.9447 14.4556 26.9517 15.0307 26.7567 15.5471C26.7521 15.5643 26.7428 15.5989 26.7381 15.6162C26.5381 16.0968 26.2164 16.5378 25.7768 16.829C25.6896 16.8878 25.5977 16.9397 25.5179 17.0084C25.4733 17.484 25.3935 17.9573 25.2846 18.4229C25.2609 18.5124 25.2388 18.6027 25.2229 18.6941C25.2842 18.7214 25.3458 18.7491 25.4074 18.7771C25.4594 18.7967 25.5117 18.8167 25.564 18.8366C25.8342 18.9527 26.1144 19.0445 26.3827 19.1647C26.4005 19.1674 26.4369 19.1724 26.4551 19.1747C26.4997 19.2028 26.5443 19.2308 26.5893 19.2596C26.9036 19.0406 27.2432 18.8516 27.6188 18.7587C27.8409 18.7103 28.0688 18.6857 28.2959 18.6722C28.5235 18.696 28.7545 18.7087 28.9758 18.7721C29.7774 18.9822 30.4503 19.5865 30.7662 20.3437C30.7902 20.4209 30.8166 20.4978 30.8453 20.5742C30.9143 20.8185 30.9375 21.0725 30.9677 21.3237C30.9511 21.5354 30.9146 21.7455 30.8832 21.9557C30.7088 22.6449 30.2588 23.2603 29.6371 23.6183C29.4843 23.6982 29.3297 23.7751 29.1673 23.8331C29.1289 23.8461 29.0905 23.8592 29.0525 23.8726C28.9374 23.9003 28.8215 23.9253 28.7064 23.951C28.5076 23.9913 28.3041 23.9687 28.1033 23.9748C27.9114 23.9825 27.7285 23.918 27.5416 23.8861C27.4897 23.8673 27.4374 23.85 27.3858 23.8327C27.2385 23.7804 27.0978 23.7132 26.9594 23.6421C26.2706 23.2622 25.7679 22.5657 25.6435 21.7928C25.6295 21.6768 25.5008 21.6518 25.4105 21.6157C25.3454 21.5892 25.2799 21.5634 25.2148 21.5389C24.9555 21.439 24.6954 21.3402 24.4396 21.2323C24.3644 21.2016 24.2872 21.1758 24.2089 21.1547C24.1973 21.1816 24.1733 21.2357 24.1616 21.2626C23.6694 22.112 23.0682 22.903 22.3546 23.5811C22.1887 23.7486 22.0224 23.9157 21.8356 24.0605C21.6646 24.2322 21.4491 24.3525 21.2797 24.5253C21.2844 24.5899 21.3321 24.6421 21.3642 24.6963C21.8212 25.3613 22.2581 26.0397 22.7232 26.6993C22.8748 26.6655 23.0283 26.6947 23.181 26.7032C24.3128 26.8003 25.3117 27.7074 25.5113 28.8149C25.54 28.9932 25.5656 29.1733 25.5788 29.3535C25.5431 29.6167 25.526 29.8848 25.4412 30.1387C25.4276 30.1768 25.4144 30.2156 25.4012 30.2544C25.371 30.3335 25.3369 30.4111 25.3032 30.4891C25.0357 31.0215 24.5919 31.4606 24.055 31.7257C23.9624 31.7641 23.8702 31.8033 23.7767 31.8398C23.7585 31.8448 23.7225 31.8552 23.7043 31.8602C23.4349 31.9481 23.1496 31.972 22.8697 32C22.6027 31.9643 22.3298 31.9474 22.0732 31.8602C22.055 31.8552 22.0185 31.8452 22.0003 31.8402C21.9065 31.8041 21.8143 31.7649 21.7228 31.7249C21.6852 31.7053 21.6484 31.6861 21.6111 31.6677C21.1603 31.4199 20.782 31.0461 20.5328 30.599C20.513 30.5617 20.494 30.5248 20.475 30.4883C20.4343 30.3969 20.3937 30.3058 20.358 30.2129C20.353 30.1956 20.3433 30.1602 20.3386 30.143C20.2487 29.8886 20.2332 29.6174 20.1975 29.3527C20.2247 29.0742 20.2498 28.7907 20.3394 28.5233C20.344 28.5056 20.3533 28.4703 20.358 28.4523C20.3921 28.3727 20.4262 28.2928 20.463 28.2141C20.4634 28.1787 20.4646 28.1438 20.4657 28.1096C19.9498 27.3582 19.4452 26.5994 18.9358 25.8434C18.8308 25.8787 18.7265 25.916 18.625 25.9602C18.5339 25.9925 18.4436 26.0274 18.3525 26.0589C18.2606 26.087 18.1699 26.1188 18.0796 26.1507C17.9009 26.2068 17.7187 26.2521 17.5397 26.3059C16.9846 26.4392 16.4226 26.556 15.8524 26.5948C15.8066 26.5891 15.7857 26.6298 15.7601 26.6586C15.7884 26.7028 15.8163 26.7473 15.8442 26.7923C15.864 26.833 15.8842 26.8741 15.9047 26.9156C15.9539 27.0285 15.9923 27.1461 16.0365 27.2613C16.0857 27.4945 16.1462 27.7277 16.126 27.9686C16.1853 29.1453 15.3082 30.264 14.167 30.5582C13.6341 30.7073 13.0608 30.675 12.5394 30.4952C11.8065 30.2294 11.2076 29.637 10.9398 28.9098C10.6921 28.226 10.7347 27.4457 11.0727 26.7984C11.1929 26.5602 11.3568 26.3467 11.532 26.1457C11.3491 26.0893 11.1669 26.0293 10.9886 25.9606C10.6591 25.8323 10.3312 25.6997 10.0169 25.5384C9.95406 25.5065 9.89127 25.4754 9.82847 25.4446C9.2955 25.1719 8.79122 24.8469 8.31058 24.4919C8.25592 24.4608 8.18383 24.3809 8.1346 24.4612C7.6276 24.9568 7.12952 25.4615 6.62136 25.956C6.71671 26.3831 6.74307 26.828 6.64268 27.2575C6.61981 27.3336 6.59733 27.4104 6.57833 27.488C6.31825 28.2801 5.6655 28.9317 4.86508 29.1883C4.78756 29.2083 4.71081 29.2302 4.63329 29.2505C4.23909 29.3424 3.82279 29.3412 3.4282 29.2517C2.60065 29.075 1.90837 28.4699 1.55835 27.715C1.55486 27.697 1.54789 27.6605 1.5444 27.6424C1.52308 27.5913 1.50215 27.5406 1.48083 27.4903C1.46145 27.4131 1.44013 27.337 1.41998 27.261C1.32734 26.8706 1.32927 26.4577 1.42075 26.0674C1.44129 25.9905 1.46339 25.9141 1.48354 25.8376C1.71805 25.1415 2.24637 24.5515 2.92353 24.251C3.1778 24.145 3.44409 24.0559 3.72085 24.0378C4.06234 23.9725 4.40692 24.0459 4.74454 24.0966C5.26316 23.573 5.79148 23.0594 6.31204 22.5381C5.91203 22.0313 5.56124 21.487 5.26084 20.9173C5.24223 20.88 5.22363 20.8435 5.20463 20.807C5.09261 20.6003 5.00579 20.3814 4.89338 20.1751C4.62554 20.525 4.2949 20.8335 3.8945 21.0287C3.73325 21.1086 3.56387 21.1716 3.39099 21.2215C2.85802 21.3683 2.28668 21.3399 1.76573 21.1585C1.701 21.1309 1.63549 21.1055 1.56959 21.0821C1.27423 20.9388 1.00213 20.7505 0.766459 20.5239C0.510247 20.2465 0.294734 19.9288 0.163721 19.5746C0.128835 19.4601 0.0974387 19.3445 0.061003 19.2308C0.0253426 18.9523 -0.0327994 18.6695 0.0234046 18.3895C0.10868 17.3703 0.86375 16.4594 1.84054 16.1444C1.9169 16.1225 1.99326 16.1014 2.07039 16.0841C2.36808 15.9981 2.68011 16.0184 2.98593 16.0257C3.24447 16.0611 3.49758 16.1294 3.741 16.2228C3.79333 16.2493 3.84566 16.2754 3.89799 16.3016C3.94877 16.3269 3.99954 16.3526 4.04993 16.3792C4.02319 16.1095 4.02241 15.8371 4.06234 15.5686C4.07668 14.9132 4.16932 14.2613 4.31428 13.6216C4.35033 13.4956 4.37436 13.3665 4.40692 13.2398C4.43522 13.1499 4.46041 13.0588 4.48406 12.9678C4.49685 12.9294 4.51003 12.891 4.52398 12.8525C4.54298 12.788 4.56313 12.7235 4.58329 12.6593C4.60422 12.6078 4.6236 12.556 4.64414 12.5049C4.64841 12.4868 4.65616 12.4503 4.66004 12.4323C4.77206 12.1334 4.88834 11.836 5.02788 11.5487C5.03718 11.5287 5.05618 11.4891 5.06548 11.4692C5.15075 11.2702 5.26433 11.0842 5.3589 10.8898C5.41976 10.7777 5.48643 10.6693 5.55504 10.5622C5.45154 10.455 5.32944 10.3685 5.21161 10.2783C4.70926 9.89486 4.21273 9.50417 3.70806 9.12385C3.61348 9.14805 3.52006 9.17648 3.42859 9.21029C3.24253 9.24371 3.05919 9.30517 2.8681 9.2998C2.71228 9.29903 2.55607 9.30287 2.40025 9.29711C1.80371 9.2318 1.22113 8.97172 0.802895 8.54031C0.266826 8.03667 -0.0153567 7.29639 0.00169824 6.56955C0.0199161 6.41012 0.0365834 6.25031 0.061003 6.09165C0.0986015 5.97717 0.130386 5.86115 0.164496 5.74629C0.435438 5.0206 1.03508 4.43091 1.7665 4.162C1.8572 4.13856 1.94713 4.11206 2.03667 4.08324C2.24714 4.04214 2.46149 4.01794 2.67507 3.99796C2.95648 4.02293 3.24292 4.0456 3.51154 4.13972C3.52976 4.14471 3.56542 4.15431 3.58325 4.15931C3.67589 4.19734 3.76775 4.23653 3.86078 4.27417C4.48522 4.57997 4.97982 5.12894 5.20967 5.78125C5.27246 5.96142 5.31394 6.14889 5.34417 6.33675C5.35813 6.57262 5.34456 6.80927 5.3496 7.04553C5.96513 7.51229 6.57446 7.98749 7.18766 8.45694C7.34968 8.31403 7.51481 8.17458 7.66753 8.02207C8.48694 7.31214 9.40597 6.70708 10.4049 6.27528C10.7056 6.12776 11.0227 6.01712 11.339 5.90764C11.4309 5.87882 11.5216 5.84732 11.6123 5.81582C11.7034 5.79392 11.7929 5.7678 11.8817 5.73899C12.3751 5.61029 12.8743 5.49159 13.3825 5.44088C13.4263 5.43204 13.4856 5.40745 13.4751 5.3506C13.4771 5.2196 13.4968 5.08168 13.4585 4.95529C12.9689 4.66064 12.5751 4.22001 12.3348 3.70484C12.3305 3.68679 12.3216 3.65068 12.3173 3.63262C12.2669 3.50815 12.2293 3.37907 12.1945 3.24961C12.0836 2.78093 12.1142 2.28574 12.2592 1.82744C12.4007 1.44673 12.6034 1.08255 12.898 0.797112C13.124 0.560468 13.4058 0.383369 13.6996 0.240844C13.8275 0.188982 13.9566 0.139425 14.0903 0.10293ZM12.7728 8.23413C12.6681 8.26294 12.5631 8.29098 12.46 8.32402C12.0755 8.43466 11.7022 8.58064 11.3402 8.74891C11.2626 8.78732 11.1851 8.82612 11.1076 8.86454C9.44047 9.7097 8.09003 11.1488 7.35356 12.8548C7.24464 13.1061 7.1582 13.3658 7.0675 13.6239C7.04773 13.6996 7.02564 13.7749 7.0051 13.8506C6.91129 14.1606 6.85664 14.4799 6.79617 14.7972C6.72679 15.4065 6.65469 16.0234 6.74113 16.6346C6.76168 17.0176 6.82369 17.3972 6.91091 17.7706C6.98455 18.0979 7.07642 18.4225 7.19968 18.7352C7.20433 18.7521 7.21363 18.7863 7.2179 18.8032C7.56946 19.7091 8.07375 20.5592 8.72494 21.2857C9.48388 22.1489 10.437 22.84 11.4894 23.3114C12.5763 23.7954 13.7717 24.034 14.9616 24.0129C15.1973 24.0286 15.4275 23.9648 15.6632 23.9702C16.3435 23.8976 17.014 23.7378 17.6556 23.5023C17.7842 23.4489 17.9145 23.3978 18.0443 23.3479C18.8242 23.001 19.5576 22.5477 20.1925 21.9795C21.0251 21.2515 21.6929 20.3437 22.1627 19.3476C22.2457 19.1682 22.3158 18.9834 22.3953 18.8028C22.4003 18.7856 22.4096 18.7514 22.4143 18.7341C22.4449 18.658 22.4724 18.5804 22.4965 18.502C22.5794 18.2619 22.643 18.0157 22.7031 17.7694C22.7368 17.6431 22.7523 17.5132 22.7782 17.3853C22.8554 17.038 22.8589 16.6803 22.9062 16.3288C22.9065 16.0219 22.9267 15.7122 22.8759 15.408C22.8434 14.8552 22.7399 14.3081 22.5872 13.7757C22.4992 13.4757 22.3906 13.1821 22.2759 12.8913C22.267 12.8714 22.2488 12.8306 22.2395 12.8107C22.2065 12.7465 22.1743 12.6824 22.1406 12.6194C22.1367 12.6017 22.129 12.566 22.1251 12.5483C22.0317 12.3808 21.9422 12.2118 21.8503 12.0439C21.6046 11.6186 21.3239 11.2118 21.0014 10.8399C20.7793 10.5633 20.5111 10.3282 20.2626 10.0758C19.7254 9.58907 19.1211 9.17571 18.4726 8.84764C18.4536 8.83842 18.4153 8.81959 18.3959 8.81037C18.3548 8.78963 18.3141 8.76927 18.2734 8.74891C17.8974 8.5768 17.5106 8.42736 17.1137 8.31019C17.0365 8.28829 16.9594 8.26601 16.8819 8.24757C16.3946 8.11427 15.8923 8.04281 15.3899 7.99479C15.0008 7.99057 14.6116 7.99057 14.2225 7.99479C13.7341 8.03974 13.248 8.11312 12.7728 8.23413Z" fill="#36B7FF"/>
<path d="M11.846 12.0311C12.0236 12.0165 12.2019 12.0165 12.3794 12.0315C12.5139 12.0792 12.6503 12.123 12.779 12.1852C13.1089 12.3869 13.3554 12.7207 13.4201 13.103C13.4903 13.3265 13.4225 13.5559 13.3659 13.7741C13.2271 14.1214 12.9519 14.4241 12.5937 14.5543C12.2817 14.6834 11.9212 14.67 11.6084 14.5513C11.227 14.393 10.934 14.0534 10.8231 13.6596C10.6638 13.1014 10.9456 12.4737 11.4472 12.1852C11.5747 12.121 11.7115 12.0788 11.846 12.0311Z" fill="#36B7FF"/>
<path d="M17.887 14.8547C18.3785 14.6642 18.9219 14.6342 19.4371 14.7387C19.5134 14.7629 19.591 14.7852 19.6693 14.8044C19.8573 14.8697 20.039 14.9511 20.2139 15.0464C20.674 15.3342 21.0689 15.7417 21.2895 16.2389C21.5542 16.8105 21.579 17.4701 21.424 18.0744C21.3647 18.2319 21.3093 18.3913 21.2329 18.5419C20.9461 19.0893 20.4608 19.5192 19.8995 19.7797C19.8821 19.7835 19.8468 19.7908 19.829 19.7947C19.7034 19.8461 19.5724 19.8819 19.4413 19.9168C18.9681 20.0256 18.4692 19.9948 18.0068 19.8515C17.9413 19.8243 17.8758 19.7989 17.8091 19.7755C17.7715 19.7574 17.7343 19.7394 17.6975 19.7213C17.163 19.482 16.7281 19.0513 16.4614 18.5362C16.4517 18.5166 16.4323 18.4778 16.4226 18.4582C16.3893 18.3833 16.3583 18.3072 16.3269 18.2319C16.2211 17.9419 16.1784 17.6353 16.1629 17.3287C16.1703 17.1413 16.2013 16.9557 16.2245 16.7698C16.259 16.6545 16.2924 16.5389 16.3277 16.424C16.5591 15.8036 17.0219 15.2723 17.6192 14.973C17.6564 14.9538 17.6936 14.9346 17.7308 14.9158C17.7827 14.8954 17.8347 14.8751 17.887 14.8547Z" fill="#36B7FF"/>
<path d="M13.005 18.7564C13.2255 18.7026 13.4565 18.6319 13.6821 18.7019C14.1601 18.7748 14.5597 19.129 14.7217 19.5754C14.7496 19.7091 14.788 19.8409 14.8043 19.9773C14.8012 20.1279 14.7504 20.2731 14.7217 20.4202C14.5636 20.8532 14.1841 21.2043 13.7213 21.2861C13.5097 21.3514 13.2887 21.3169 13.0806 21.2573C13.062 21.2531 13.0247 21.2443 13.0061 21.2396C12.7344 21.1332 12.498 20.9488 12.3367 20.7068C12.1301 20.3772 12.0604 19.955 12.198 19.5866C12.3174 19.2032 12.6325 18.9009 13.005 18.7564Z" fill="#36B7FF"/>
</svg>
