<svg width="25" height="29" viewBox="0 0 25 29" fill="none" xmlns="http://www.w3.org/2000/svg">
<path d="M15.125 2H4.625C3.92881 2 3.26113 2.26339 2.76884 2.73223C2.27656 3.20107 2 3.83696 2 4.5V24.5C2 25.163 2.27656 25.7989 2.76884 26.2678C3.26113 26.7366 3.92881 27 4.625 27H20.375C21.0712 27 21.7389 26.7366 22.2312 26.2678C22.7234 25.7989 23 25.163 23 24.5V9.5M15.125 2L23 9.5M15.125 2V9.5H23M17.75 15.75H7.25M17.75 20.75H7.25M9.875 10.75H7.25" stroke="#36B7FF" stroke-width="2.2" stroke-linecap="round" stroke-linejoin="round"/>
</svg>
